<?xml version="1.0" encoding="UTF-8" standalone="no"?>
<svg
   id="Capa_1"
   data-name="Capa 1"
   viewBox="0 0 215 215"
   version="1.1"
   sodipodi:docname="blackSIGCA.svg"
   inkscape:version="1.4 (e7c3feb100, 2024-10-09)"
   width="215"
   height="215"
   xmlns:inkscape="http://www.inkscape.org/namespaces/inkscape"
   xmlns:sodipodi="http://sodipodi.sourceforge.net/DTD/sodipodi-0.dtd"
   xmlns="http://www.w3.org/2000/svg"
   xmlns:svg="http://www.w3.org/2000/svg">
  <sodipodi:namedview
     id="namedview36"
     pagecolor="#505050"
     bordercolor="#ffffff"
     borderopacity="1"
     inkscape:showpageshadow="0"
     inkscape:pageopacity="0"
     inkscape:pagecheckerboard="1"
     inkscape:deskcolor="#505050"
     inkscape:zoom="1.3489736"
     inkscape:cx="103.0413"
     inkscape:cy="93.404348"
     inkscape:window-width="1280"
     inkscape:window-height="761"
     inkscape:window-x="0"
     inkscape:window-y="0"
     inkscape:window-maximized="1"
     inkscape:current-layer="g37" />
  <defs
     id="defs1">
    <style
       id="style1">.cls-1{fill:#111;}.cls-2{fill:#7495b2;}</style>
  </defs>
  <g
     id="g37">
    <path
       class="cls-1"
       d="m 23.191304,135.91913 a 2.68,2.68 0 1 0 2.68,2.68 2.67,2.67 0 0 0 -2.68,-2.68 z"
       id="path1"
       style="fill:#111111;fill-opacity:1" />
    <circle
       class="cls-1"
       cx="23.191305"
       cy="109.08913"
       r="3.45"
       id="circle1"
       style="fill:#111111;fill-opacity:1" />
    <circle
       class="cls-1"
       cx="23.191305"
       cy="80.379135"
       r="3.45"
       id="circle2"
       style="fill:#111111;fill-opacity:1" />
    <circle
       class="cls-1"
       cx="196.2113"
       cy="80.379135"
       r="3.45"
       id="circle3"
       style="fill:#111111;fill-opacity:1" />
    <path
       class="cls-1"
       d="m 52.121304,164.52913 a 2.68,2.68 0 1 0 2.68,2.66 2.68,2.68 0 0 0 -2.68,-2.66 z"
       id="path3"
       style="fill:#111111;fill-opacity:1" />
    <path
       class="cls-1"
       d="m 52.121304,135.18913 a 3.46,3.46 0 1 0 3.45,3.45 3.46,3.46 0 0 0 -3.45,-3.45 z"
       id="path4"
       style="fill:#111111;fill-opacity:1" />
    <path
       class="cls-1"
       d="m 52.121304,104.85913 a 4.23,4.23 0 1 0 4.23,4.23 4.24,4.24 0 0 0 -4.23,-4.23 z"
       id="path5"
       style="fill:#111111;fill-opacity:1" />
    <path
       class="cls-1"
       d="m 52.121304,76.18913 a 4.23,4.23 0 1 0 4.23,4.23 4.24,4.24 0 0 0 -4.23,-4.23 z"
       id="path6"
       style="fill:#111111;fill-opacity:1" />
    <path
       class="cls-1"
       d="m 167.7413,76.18913 a 4.23,4.23 0 1 0 4.23,4.23 4.24,4.24 0 0 0 -4.23,-4.23 z"
       id="path7"
       style="fill:#111111;fill-opacity:1" />
    <path
       class="cls-1"
       d="m 52.121304,55.67913 a 4.23,4.23 0 1 0 -4.23,-4.23 4.24,4.24 0 0 0 4.23,4.23 z"
       id="path8"
       style="fill:#111111;fill-opacity:1" />
    <path
       class="cls-1"
       d="m 81.461304,193.67913 a 2.68,2.68 0 1 0 2.68,2.68 2.68,2.68 0 0 0 -2.68,-2.68 z"
       id="path9"
       style="fill:#111111;fill-opacity:1" />
    <circle
       class="cls-1"
       cx="81.461304"
       cy="167.20914"
       r="3.45"
       id="circle9"
       style="fill:#111111;fill-opacity:1" />
    <circle
       class="cls-1"
       cx="81.461304"
       cy="138.59914"
       r="4.23"
       id="circle10"
       style="fill:#111111;fill-opacity:1" />
    <circle
       class="cls-1"
       cx="81.461304"
       cy="80.599136"
       r="8.8900003"
       id="circle11"
       style="fill:#111111;fill-opacity:1" />
    <path
       class="cls-1"
       d="m 81.461304,27.06913 a 4.23,4.23 0 1 0 -4.23,-4.23 4.24,4.24 0 0 0 4.23,4.23 z"
       id="path11"
       style="fill:#111111;fill-opacity:1" />
    <circle
       class="cls-1"
       cx="110.4513"
       cy="167.20914"
       r="7.3299999"
       id="circle12"
       style="fill:#111111;fill-opacity:1" />
    <circle
       class="cls-1"
       cx="110.4513"
       cy="138.59914"
       r="8.1099997"
       id="circle13"
       style="fill:#111111;fill-opacity:1" />
    <circle
       class="cls-1"
       cx="110.4513"
       cy="109.08913"
       r="8.8900003"
       id="circle14"
       style="fill:#111111;fill-opacity:1" />
    <circle
       class="cls-1"
       cx="110.4513"
       cy="80.599136"
       r="9.6599998"
       id="circle15"
       style="fill:#111111;fill-opacity:1" />
    <circle
       class="cls-1"
       cx="110.4513"
       cy="51.449127"
       r="8.8900003"
       id="circle16"
       style="fill:#111111;fill-opacity:1" />
    <path
       class="cls-1"
       d="m 110.4513,30.94913 a 8.11,8.11 0 1 0 -8.11,-8.11 8.12,8.12 0 0 0 8.11,8.11 z"
       id="path16"
       style="fill:#111111;fill-opacity:1" />
    <path
       class="cls-1"
       d="m 138.4013,193.67913 a 2.68,2.68 0 1 0 2.67,2.68 2.68,2.68 0 0 0 -2.67,-2.68 z"
       id="path17"
       style="fill:#111111;fill-opacity:1" />
    <circle
       class="cls-1"
       cx="138.40131"
       cy="167.20914"
       r="3.45"
       id="circle17"
       style="fill:#111111;fill-opacity:1" />
    <circle
       class="cls-1"
       cx="138.40131"
       cy="138.59914"
       r="4.23"
       id="circle18"
       style="fill:#111111;fill-opacity:1" />
    <circle
       class="cls-1"
       cx="138.40131"
       cy="80.599136"
       r="8.8900003"
       id="circle19"
       style="fill:#111111;fill-opacity:1" />
    <path
       class="cls-1"
       d="m 138.4013,27.06913 a 4.23,4.23 0 1 0 -4.23,-4.23 4.24,4.24 0 0 0 4.23,4.23 z"
       id="path19"
       style="fill:#111111;fill-opacity:1" />
    <path
       class="cls-1"
       d="m 167.4613,164.52913 a 2.68,2.68 0 1 0 2.68,2.66 2.68,2.68 0 0 0 -2.68,-2.66 z"
       id="path20"
       style="fill:#111111;fill-opacity:1" />
    <circle
       class="cls-1"
       cx="167.4713"
       cy="138.59914"
       r="3.45"
       id="circle20"
       style="fill:#111111;fill-opacity:1" />
    <circle
       class="cls-1"
       cx="167.4713"
       cy="109.08913"
       r="4.23"
       id="circle21"
       style="fill:#111111;fill-opacity:1" />
    <circle
       class="cls-1"
       cx="167.4713"
       cy="51.449127"
       r="4.23"
       id="circle22"
       style="fill:#111111;fill-opacity:1" />
    <path
       class="cls-1"
       d="m 196.0913,135.91913 a 2.68,2.68 0 1 0 2.67,2.68 2.68,2.68 0 0 0 -2.67,-2.68 z"
       id="path22"
       style="fill:#111111;fill-opacity:1" />
    <circle
       class="cls-1"
       cx="196.09131"
       cy="109.08913"
       r="3.45"
       id="circle23"
       style="fill:#111111;fill-opacity:1" />
    <path
       class="cls-1"
       d="m 81.601304,104.85913 a 4.23,4.23 0 1 0 4.23,4.23 4.24,4.24 0 0 0 -4.23,-4.23 z"
       id="path23"
       style="fill:#111111;fill-opacity:1" />
    <path
       class="cls-1"
       d="m 138.2413,104.85913 a 4.23,4.23 0 1 0 4.23,4.23 4.24,4.24 0 0 0 -4.23,-4.23 z"
       id="path24"
       style="fill:#111111;fill-opacity:1" />
    <path
       class="cls-1"
       d="m 110.4713,193.67913 a 2.68,2.68 0 1 0 2.67,2.68 2.68,2.68 0 0 0 -2.67,-2.68 z"
       id="path25"
       style="fill:#111111;fill-opacity:1" />
    <path
       class="cls-1"
       d="m 81.601304,47.44913 a 4.23,4.23 0 1 0 4.23,4.23 4.23,4.23 0 0 0 -4.23,-4.23 z"
       id="path26"
       style="fill:#111111;fill-opacity:1" />
    <path
       class="cls-1"
       d="m 138.2413,47.44913 a 4.23,4.23 0 1 0 4.23,4.23 4.23,4.23 0 0 0 -4.23,-4.23 z"
       id="path27"
       style="fill:#111111;fill-opacity:1" />
  </g>
</svg>
