<?xml version="1.0" encoding="UTF-8" standalone="no"?>
<svg
   id="Capa_1"
   data-name="Capa 1"
   viewBox="0 0 205 205"
   version="1.1"
   sodipodi:docname="whiteSIGCA.svg"
   inkscape:version="1.3.2 (091e20e, 2023-11-25, custom)"
   width="205"
   height="205"
   xmlns:inkscape="http://www.inkscape.org/namespaces/inkscape"
   xmlns:sodipodi="http://sodipodi.sourceforge.net/DTD/sodipodi-0.dtd"
   xmlns="http://www.w3.org/2000/svg"
   xmlns:svg="http://www.w3.org/2000/svg">
  <sodipodi:namedview
     id="namedview36"
     pagecolor="#505050"
     bordercolor="#ffffff"
     borderopacity="1"
     inkscape:showpageshadow="0"
     inkscape:pageopacity="0"
     inkscape:pagecheckerboard="1"
     inkscape:deskcolor="#505050"
     inkscape:zoom="1.3489736"
     inkscape:cx="340.2587"
     inkscape:cy="102.67065"
     inkscape:window-width="1920"
     inkscape:window-height="974"
     inkscape:window-x="-11"
     inkscape:window-y="-11"
     inkscape:window-maximized="1"
     inkscape:current-layer="Capa_1" />
  <defs
     id="defs1">
    <style
       id="style1">.cls-1{fill:#111;}.cls-2{fill:#7495b2;}</style>
  </defs>
  <g
     id="g37"
     style="fill:#7495b2;fill-opacity:1">
    <path
       class="cls-1"
       d="m 16.45,130.73 a 2.68,2.68 0 1 0 2.68,2.68 2.67,2.67 0 0 0 -2.68,-2.68 z"
       id="path1"
       style="fill:#7495b2;fill-opacity:1" />
    <circle
       class="cls-1"
       cx="16.450001"
       cy="103.9"
       r="3.45"
       id="circle1"
       style="fill:#7495b2;fill-opacity:1" />
    <circle
       class="cls-1"
       cx="16.450001"
       cy="75.190002"
       r="3.45"
       id="circle2"
       style="fill:#7495b2;fill-opacity:1" />
    <circle
       class="cls-1"
       cx="189.47"
       cy="75.190002"
       r="3.45"
       id="circle3"
       style="fill:#7495b2;fill-opacity:1" />
    <path
       class="cls-1"
       d="m 45.38,159.34 a 2.68,2.68 0 1 0 2.68,2.66 2.68,2.68 0 0 0 -2.68,-2.66 z"
       id="path3"
       style="fill:#7495b2;fill-opacity:1" />
    <path
       class="cls-1"
       d="m 45.38,130 a 3.46,3.46 0 1 0 3.45,3.45 3.46,3.46 0 0 0 -3.45,-3.45 z"
       id="path4"
       style="fill:#7495b2;fill-opacity:1" />
    <path
       class="cls-1"
       d="m 45.38,99.67 a 4.23,4.23 0 1 0 4.23,4.23 4.24,4.24 0 0 0 -4.23,-4.23 z"
       id="path5"
       style="fill:#7495b2;fill-opacity:1" />
    <path
       class="cls-1"
       d="M 45.38,71 A 4.23,4.23 0 1 0 49.61,75.23 4.24,4.24 0 0 0 45.38,71 Z"
       id="path6"
       style="fill:#7495b2;fill-opacity:1" />
    <path
       class="cls-1"
       d="m 161,71 a 4.23,4.23 0 1 0 4.23,4.23 A 4.24,4.24 0 0 0 161,71 Z"
       id="path7"
       style="fill:#7495b2;fill-opacity:1" />
    <path
       class="cls-1"
       d="m 45.38,50.49 a 4.23,4.23 0 1 0 -4.23,-4.23 4.24,4.24 0 0 0 4.23,4.23 z"
       id="path8"
       style="fill:#7495b2;fill-opacity:1" />
    <path
       class="cls-1"
       d="m 74.72,188.49 a 2.68,2.68 0 1 0 2.68,2.68 2.68,2.68 0 0 0 -2.68,-2.68 z"
       id="path9"
       style="fill:#7495b2;fill-opacity:1" />
    <circle
       class="cls-1"
       cx="74.720001"
       cy="162.02"
       r="3.45"
       id="circle9"
       style="fill:#7495b2;fill-opacity:1" />
    <circle
       class="cls-1"
       cx="74.720001"
       cy="133.41"
       r="4.23"
       id="circle10"
       style="fill:#7495b2;fill-opacity:1" />
    <circle
       class="cls-1"
       cx="74.720001"
       cy="75.410004"
       r="8.8900003"
       id="circle11"
       style="fill:#7495b2;fill-opacity:1" />
    <path
       class="cls-1"
       d="m 74.72,21.88 a 4.23,4.23 0 1 0 -4.23,-4.23 4.24,4.24 0 0 0 4.23,4.23 z"
       id="path11"
       style="fill:#7495b2;fill-opacity:1" />
    <circle
       class="cls-1"
       cx="103.71"
       cy="162.02"
       r="7.3299999"
       id="circle12"
       style="fill:#7495b2;fill-opacity:1" />
    <circle
       class="cls-1"
       cx="103.71"
       cy="133.41"
       r="8.1099997"
       id="circle13"
       style="fill:#7495b2;fill-opacity:1" />
    <circle
       class="cls-1"
       cx="103.71"
       cy="103.9"
       r="8.8900003"
       id="circle14"
       style="fill:#7495b2;fill-opacity:1" />
    <circle
       class="cls-1"
       cx="103.71"
       cy="75.410004"
       r="9.6599998"
       id="circle15"
       style="fill:#7495b2;fill-opacity:1" />
    <circle
       class="cls-1"
       cx="103.71"
       cy="46.259998"
       r="8.8900003"
       id="circle16"
       style="fill:#7495b2;fill-opacity:1" />
    <path
       class="cls-1"
       d="m 103.71,25.76 a 8.11,8.11 0 1 0 -8.11,-8.11 8.12,8.12 0 0 0 8.11,8.11 z"
       id="path16"
       style="fill:#7495b2;fill-opacity:1" />
    <path
       class="cls-1"
       d="m 131.66,188.49 a 2.68,2.68 0 1 0 2.67,2.68 2.68,2.68 0 0 0 -2.67,-2.68 z"
       id="path17"
       style="fill:#7495b2;fill-opacity:1" />
    <circle
       class="cls-1"
       cx="131.66"
       cy="162.02"
       r="3.45"
       id="circle17"
       style="fill:#7495b2;fill-opacity:1" />
    <circle
       class="cls-1"
       cx="131.66"
       cy="133.41"
       r="4.23"
       id="circle18"
       style="fill:#7495b2;fill-opacity:1" />
    <circle
       class="cls-1"
       cx="131.66"
       cy="75.410004"
       r="8.8900003"
       id="circle19"
       style="fill:#7495b2;fill-opacity:1" />
    <path
       class="cls-1"
       d="m 131.66,21.88 a 4.23,4.23 0 1 0 -4.23,-4.23 4.24,4.24 0 0 0 4.23,4.23 z"
       id="path19"
       style="fill:#7495b2;fill-opacity:1" />
    <path
       class="cls-1"
       d="m 160.72,159.34 a 2.68,2.68 0 1 0 2.68,2.66 2.68,2.68 0 0 0 -2.68,-2.66 z"
       id="path20"
       style="fill:#7495b2;fill-opacity:1" />
    <circle
       class="cls-1"
       cx="160.73"
       cy="133.41"
       r="3.45"
       id="circle20"
       style="fill:#7495b2;fill-opacity:1" />
    <circle
       class="cls-1"
       cx="160.73"
       cy="103.9"
       r="4.23"
       id="circle21"
       style="fill:#7495b2;fill-opacity:1" />
    <circle
       class="cls-1"
       cx="160.73"
       cy="46.259998"
       r="4.23"
       id="circle22"
       style="fill:#7495b2;fill-opacity:1" />
    <path
       class="cls-1"
       d="m 189.35,130.73 a 2.68,2.68 0 1 0 2.67,2.68 2.68,2.68 0 0 0 -2.67,-2.68 z"
       id="path22"
       style="fill:#7495b2;fill-opacity:1" />
    <circle
       class="cls-1"
       cx="189.35001"
       cy="103.9"
       r="3.45"
       id="circle23"
       style="fill:#7495b2;fill-opacity:1" />
    <path
       class="cls-1"
       d="m 74.86,99.67 a 4.23,4.23 0 1 0 4.23,4.23 4.24,4.24 0 0 0 -4.23,-4.23 z"
       id="path23"
       style="fill:#7495b2;fill-opacity:1" />
    <path
       class="cls-1"
       d="m 131.5,99.67 a 4.23,4.23 0 1 0 4.23,4.23 4.24,4.24 0 0 0 -4.23,-4.23 z"
       id="path24"
       style="fill:#7495b2;fill-opacity:1" />
    <path
       class="cls-1"
       d="m 103.73,188.49 a 2.68,2.68 0 1 0 2.67,2.68 2.68,2.68 0 0 0 -2.67,-2.68 z"
       id="path25"
       style="fill:#7495b2;fill-opacity:1" />
    <path
       class="cls-1"
       d="m 74.86,42.26 a 4.23,4.23 0 1 0 4.23,4.23 4.23,4.23 0 0 0 -4.23,-4.23 z"
       id="path26"
       style="fill:#7495b2;fill-opacity:1" />
    <path
       class="cls-1"
       d="m 131.5,42.26 a 4.23,4.23 0 1 0 4.23,4.23 4.23,4.23 0 0 0 -4.23,-4.23 z"
       id="path27"
       style="fill:#7495b2;fill-opacity:1" />
  </g>
</svg>
