<?xml version="1.0" encoding="UTF-8"?><svg id="Capa_1" xmlns="http://www.w3.org/2000/svg" viewBox="0 0 382 300"><defs><style>.cls-1{fill:#7495b2;}</style></defs><path class="cls-1" d="M24,103.67c5.17,4.94,10,9.5,15.73,13.83,18.83,14.23,40.02,27.24,59.52,40.77,25.68,17.82,67.49,55.29,99.1,53.06,25.96-1.84,69.98-38.8,92.4-54.39,19.3-13.42,41.73-26.61,59.92-41.03,4.75-3.77,8.78-8.28,13.33-12.24v153.8c0,12.97-15.91,27.32-28.86,26.94l-283.57-.04c-11.27-1.21-21.26-8.58-25.42-19.08l-2.15-7.48V103.67Z"/><path class="cls-1" d="M24,47.2c1.18-12.35,8.82-26.24,21.75-29.06,98.2-1.37,196.95-1.43,295.14.03,38.76,13,21.94,57.45-2.48,76.19-38.37,25.71-75.63,55.29-114.33,80.28-8.03,5.18-20.04,12.68-29.76,12.8s-22.2-7.5-30.42-12.8c-37.66-24.32-73.68-53.35-111.29-78.01-11.34-9.08-26.86-26.54-28.62-41.45-.24-2.02-.2-5.91,0-7.97Z"/></svg>