<?xml version="1.0" encoding="UTF-8"?><svg id="Capa_1" xmlns="http://www.w3.org/2000/svg" viewBox="0 0 45 43"><defs><style>.cls-1{fill:#7495b2;}</style></defs><g id="instagram"><path id="Shape" class="cls-1" d="M22.78,40.86c-3.41,0-6.45-.05-7.93-.13-2.99.06-5.88-1.05-8.05-3.1-2.06-2.17-3.18-5.06-3.1-8.05-.18-3.19-.18-12.67,0-15.86-.07-2.99,1.05-5.88,3.1-8.05,2.17-2.05,5.06-3.16,8.05-3.09,1.47-.09,4.51-.14,7.93-.14s6.46.05,7.93.14c2.99-.06,5.88,1.05,8.05,3.1,2.06,2.17,3.18,5.06,3.1,8.05.18,3.18.18,12.66,0,15.85.06,2.99-1.05,5.88-3.1,8.05-2.17,2.06-5.06,3.18-8.05,3.1-1.48.08-4.52.13-7.93.13ZM22.78,37.4c.4,0,.87,0,1.37,0,.62,0,1.31.01,2.04.01,2.67.13,5.33-.15,7.92-.8,1.67-.66,2.99-1.98,3.65-3.65.86-2.16.81-6.85.78-9.96,0-.5,0-.98,0-1.37s0-.87,0-1.37c.03-3.1.08-7.79-.78-9.96-.66-1.67-1.98-2.99-3.65-3.65-2.62-.65-5.32-.92-8.01-.79-.7,0-1.38,0-1.98.01-.48,0-.95,0-1.34,0s-.87,0-1.37,0c-.61,0-1.31-.01-2.03-.01-2.67-.13-5.34.14-7.93.79-1.67.66-2.99,1.99-3.65,3.66-.86,2.17-.81,6.87-.78,9.98,0,.49,0,.95,0,1.34s0,.87,0,1.37c-.03,3.1-.08,7.79.78,9.96.66,1.67,1.98,2.99,3.65,3.65,2.61.65,5.31.92,8,.79.71,0,1.39,0,1.99-.01.49,0,.95,0,1.34,0h0ZM22.78,31.5c-5.43,0-9.84-4.41-9.83-9.85s4.41-9.84,9.85-9.83,9.84,4.41,9.83,9.85c0,2.6-1.04,5.1-2.88,6.94-1.84,1.85-4.35,2.89-6.97,2.89h0ZM22.78,15.24c-3.54,0-6.41,2.87-6.41,6.41s2.87,6.41,6.41,6.41,6.41-2.87,6.41-6.41h0c0-3.53-2.87-6.4-6.4-6.41h0ZM33.04,13.69c-1.27,0-2.3-1.03-2.3-2.3,0-1.27,1.03-2.3,2.3-2.3,1.27,0,2.3,1.03,2.3,2.3,0,1.27-1.03,2.29-2.3,2.3h0Z"/></g></svg>