<?xml version="1.0" encoding="UTF-8" standalone="no"?>
<svg
   id="Capa_1"
   data-name="Capa 1"
   viewBox="0 0 350 265"
   version="1.1"
   sodipodi:docname="investiduras.svg"
   inkscape:version="1.4 (e7c3feb100, 2024-10-09)"
   width="350"
   height="265"
   inkscape:export-filename="investiduras.png"
   inkscape:export-xdpi="96"
   inkscape:export-ydpi="96"
   xmlns:inkscape="http://www.inkscape.org/namespaces/inkscape"
   xmlns:sodipodi="http://sodipodi.sourceforge.net/DTD/sodipodi-0.dtd"
   xmlns="http://www.w3.org/2000/svg"
   xmlns:svg="http://www.w3.org/2000/svg">
  <sodipodi:namedview
     id="namedview3"
     pagecolor="#505050"
     bordercolor="#ffffff"
     borderopacity="1"
     inkscape:showpageshadow="0"
     inkscape:pageopacity="0"
     inkscape:pagecheckerboard="1"
     inkscape:deskcolor="#505050"
     inkscape:zoom="2.747212"
     inkscape:cx="173.44857"
     inkscape:cy="146.33017"
     inkscape:window-width="1290"
     inkscape:window-height="761"
     inkscape:window-x="0"
     inkscape:window-y="0"
     inkscape:window-maximized="1"
     inkscape:current-layer="Capa_1" />
  <defs
     id="defs1">
    <style
       id="style1">.cls-1{fill:#7495b2;}</style>
  </defs>
  <g
     id="g1"
     transform="matrix(1.0325254,0,0,1.0123004,65.818092,-2.5041729)">
    <path
       class="cls-1"
       d="m 62.44,263 c -1.56,-1.65 -3.55,-3.06 -4.62,-5 -4.11,-7.36 -8,-14.87 -11.83,-22.38 a 2.79,2.79 0 0 0 -3.05,-1.84 c -8.69,0.52 -17.38,0.88 -26.06,1.38 -2.67,0.15 -5,-0.25 -6.62,-2.62 -1.62,-2.37 -1,-4.87 0.38,-7.29 q 16.56,-28.93 33,-57.92 c 0.49,-0.86 0.94,-1.73 1.56,-2.87 -2,-0.67 -3.82,-1.25 -5.6,-1.86 -8.1,-2.76 -12.48,-8.88 -12.4,-17.41 0,-2.51 0.12,-5 0.34,-7.52 A 11.39,11.39 0 0 0 24,127.94 73.69,73.69 0 0 1 17.45,121 16.31,16.31 0 0 1 15.29,103.11 71.3,71.3 0 0 1 20,94.86 11.53,11.53 0 0 0 21.22,84.78 90.23,90.23 0 0 1 18.68,75.87 c -1.42,-7 0.83,-12.73 6.38,-17.07 a 71.82,71.82 0 0 1 8,-5.13 11.19,11.19 0 0 0 5.67,-8.14 c 0.35,-2.06 0.76,-4.1 1.14,-6.16 1.74,-9.66 7.82,-15.06 17.65,-15.72 2.25,-0.15 4.5,-0.36 6.76,-0.45 a 10.29,10.29 0 0 0 7.95,-4.15 c 1.61,-2 3.2,-4.07 4.85,-6.08 5.53,-6.71 13.12,-8.65 21.16,-5.36 2.4,1 4.76,2.05 7.11,3.14 a 11.08,11.08 0 0 0 9.45,0 c 3.75,-1.59 7.5,-3.38 11.43,-4.32 5.77,-1.37 11,0.51 15.09,4.73 a 94.93,94.93 0 0 1 6.4,7.72 10.69,10.69 0 0 0 8.13,4.32 c 3.09,0.17 6.18,0.37 9.24,0.79 7.66,1.05 13.07,6.09 14.79,13.68 0.59,2.6 1.09,5.23 1.52,7.87 a 10.87,10.87 0 0 0 5.45,8 c 2.37,1.41 4.76,2.81 7,4.36 6.73,4.56 9.35,11.62 7.26,19.46 -0.7,2.66 -1.51,5.3 -2.34,7.93 a 10.65,10.65 0 0 0 1.08,9.14 88.21,88.21 0 0 1 5,8.71 c 2.94,6.42 2.12,12.57 -2.32,18.07 a 75.14,75.14 0 0 1 -6.39,6.73 11.25,11.25 0 0 0 -3.61,9.47 c 0.2,2.59 0.4,5.18 0.43,7.77 0.1,8.32 -4.33,14.59 -12.19,17.35 -1.87,0.66 -3.76,1.24 -5.84,1.92 0.52,1 0.93,1.78 1.37,2.56 q 16.5,29 32.95,58 a 10.11,10.11 0 0 1 1.49,4.9 c -0.07,3.52 -3.05,5.53 -7.13,5.31 -8.6,-0.45 -17.21,-0.81 -25.8,-1.39 -2.14,-0.15 -3.07,0.64 -4,2.4 -3.72,7.3 -7.48,14.57 -11.47,21.72 -1.07,1.94 -3,3.41 -4.52,5.09 h -3 c -1.56,-1.55 -3.54,-2.86 -4.6,-4.7 q -17,-29.38 -33.64,-59 c -0.94,-1.67 -1.77,-2.48 -3.87,-1.93 a 10.64,10.64 0 0 1 -5.2,0 c -2.2,-0.57 -3.05,0.3 -4,2 Q 86.88,228.8 70.08,258 c -1.1,1.92 -3.06,3.34 -4.62,5 z M 34.74,140.5 c 0,1.45 0,3 0,4.63 -0.09,5.31 2.25,8.67 7.32,10.37 2.29,0.77 4.61,1.47 6.92,2.19 a 18.27,18.27 0 0 1 11.83,10.44 c 1,2.28 2,4.58 3.14,6.82 2.35,4.73 6.12,6.66 11.28,5.84 2.64,-0.42 5.27,-0.88 7.91,-1.33 a 17,17 0 0 1 13.13,2.8 c 2.6,1.82 5,3.85 7.61,5.73 a 9.8,9.8 0 0 0 12.32,0 c 2.09,-1.53 4.11,-3.15 6.17,-4.73 a 18.1,18.1 0 0 1 15.08,-3.73 c 2.37,0.46 4.77,0.83 7.16,1.2 5.64,0.87 9.28,-1.06 11.75,-6.23 1,-2.11 2,-4.23 2.95,-6.37 a 18.19,18.19 0 0 1 11.8,-10.45 c 2.47,-0.77 4.95,-1.51 7.39,-2.37 a 9.65,9.65 0 0 0 6.91,-9.93 c 0,-2.67 -0.29,-5.34 -0.43,-8 a 18.33,18.33 0 0 1 5.58,-14.5 c 1.78,-1.78 3.55,-3.55 5.28,-5.37 3.62,-3.83 4.12,-8 1.51,-12.61 -1.2,-2.11 -2.46,-4.18 -3.73,-6.25 a 18.57,18.57 0 0 1 -1.93,-15.89 c 0.74,-2.39 1.53,-4.77 2.18,-7.19 1.34,-4.94 -0.2,-8.88 -4.51,-11.65 -2,-1.31 -4.11,-2.58 -6.19,-3.81 A 18.67,18.67 0 0 1 173.9,46.5 c -0.43,-2.55 -0.89,-5.11 -1.51,-7.62 -1,-4.13 -3.66,-6.74 -7.9,-7.37 -3.06,-0.45 -6.16,-0.61 -9.24,-0.82 a 17.9,17.9 0 0 1 -13.33,-7 c -1.73,-2.15 -3.39,-4.36 -5.19,-6.45 -3.15,-3.65 -7.06,-4.59 -11.53,-2.81 -2.56,1 -5.07,2.17 -7.59,3.28 a 18,18 0 0 1 -15.06,0 c -2.6,-1.13 -5.18,-2.33 -7.82,-3.37 a 9.45,9.45 0 0 0 -11.32,2.84 c -1.78,2.1 -3.45,4.3 -5.18,6.45 A 18,18 0 0 1 64.66,30.7 q -3.63,0.19 -7.26,0.51 c -5.79,0.5 -9,3.39 -10,9.07 -0.45,2.38 -0.94,4.76 -1.39,7.14 a 18,18 0 0 1 -8.8,12.51 c -2.28,1.39 -4.58,2.76 -6.81,4.24 a 9.5,9.5 0 0 0 -4.2,11.11 c 0.7,2.58 1.47,5.14 2.26,7.69 a 18.22,18.22 0 0 1 -1.82,15.42 c -1.37,2.3 -2.79,4.57 -4.08,6.91 a 9.66,9.66 0 0 0 1.35,11.82 40.91,40.91 0 0 0 3.51,3.58 c 5.97,5.3 8.87,11.63 7.32,19.8 z m 167.32,87 -33.93,-59.5 c -4.58,7.07 -5.71,16.38 -15,19.46 2,3.55 3.88,6.72 5.62,9.94 1.24,2.28 0.74,4.4 -1.1,5.51 -1.84,1.11 -4.06,0.47 -5.46,-1.87 a 55.65,55.65 0 0 1 -3.81,-6.76 c -1.8,-4.31 -4.76,-6 -9.43,-7 -7.46,-1.62 -12.34,1.63 -17.15,6.27 11.4,20 22.77,39.94 34.18,60 a 4.85,4.85 0 0 0 0.64,-0.7 c 3.78,-7.17 7.58,-14.33 11.23,-21.56 a 3.7,3.7 0 0 0 -0.2,-2.92 c -1.87,-3.55 -3.95,-7 -5.91,-10.48 -1.55,-2.79 -1.18,-4.91 1,-6.07 2.18,-1.16 4,-0.33 5.52,2.31 2.06,3.54 4,7.14 6.13,10.65 a 3.17,3.17 0 0 0 2,1.53 c 8.35,0.39 16.69,0.77 25.67,1.21 z m -150,-59.79 -33.88,59.5 a 5.86,5.86 0 0 0 1,0.19 c 8.11,-0.38 16.21,-0.73 24.31,-1.22 a 3.41,3.41 0 0 0 2.19,-1.6 c 2.08,-3.43 4,-7 6,-10.44 1.58,-2.73 3.63,-3.52 5.72,-2.28 1.94,1.16 2.29,3.35 0.85,5.93 -1.92,3.43 -3.83,6.86 -5.86,10.22 a 3.21,3.21 0 0 0 -0.1,3.65 c 3,5.43 5.77,10.94 8.65,16.41 0.91,1.74 1.85,3.46 3,5.56 11.59,-20.36 22.94,-40.28 34.38,-60.36 -1.53,-1.19 -3,-2.19 -4.27,-3.34 A 11.62,11.62 0 0 0 82.89,187.1 c -1.93,0.5 -4,0.54 -5.9,1.13 a 5.59,5.59 0 0 0 -3,2.1 c -2.27,3.6 -4.27,7.37 -6.42,11.05 -1.08,1.86 -3,2.6 -4.69,1.61 -1.13,-0.64 -1.85,-2.37 -2.23,-3.76 -0.21,-0.75 0.6,-1.84 1.08,-2.71 1.64,-3 3.34,-5.93 5.12,-9.08 -6,-2.33 -9,-7 -11.25,-12.42 -0.9,-2.27 -2.11,-4.46 -3.5,-7.29 z"
       id="path1" />
    <path
       class="cls-1"
       d="m 110.16,169.08 c -36.8,0.16 -67.24,-30.22 -67.29,-67.16 a 67.160082,67.160082 0 0 1 134.32,-0.21 c 0.09,37.04 -29.35,66.88 -67.03,67.37 z m 59.58,-67.21 A 59.94,59.94 0 0 0 110.17,42.21 C 77.47,42 50.41,69.06 50.4,101.88 c -0.01,32.82 27.1,59.84 59.78,59.67 32.68,-0.17 59.58,-27.01 59.56,-59.68 z"
       id="path2" />
    <path
       class="cls-1"
       d="m 132.24,109.55 c 2.75,8.5 5.47,16.82 8.13,25.17 a 9.89,9.89 0 0 1 0.67,3.64 c -0.36,4.34 -5,6.08 -8.89,3.31 -6.74,-4.81 -13.45,-9.65 -20.08,-14.62 -1.57,-1.18 -2.58,-1.07 -4.09,0.06 -6.64,5 -13.34,9.8 -20.08,14.61 -3.53,2.52 -7.77,1.34 -8.64,-2.46 a 8.84,8.84 0 0 1 0.42,-4.39 c 2.42,-7.73 4.9,-15.44 7.52,-23.1 0.61,-1.78 0.22,-2.64 -1.23,-3.67 -6.82,-4.84 -13.56,-9.79 -20.31,-14.72 -2.06,-1.5 -3.16,-3.46 -2.36,-6.09 0.8,-2.63 2.77,-3.62 5.31,-3.81 0.67,0 1.34,0 2,0 7.61,0 15.23,-0.09 22.84,0.05 2.18,0 3.16,-0.53 3.83,-2.74 2.25,-7.51 4.81,-14.94 7.25,-22.39 1.19,-3.64 2.88,-5.21 5.57,-5.18 2.69,0.03 4.34,1.62 5.53,5.27 2.48,7.62 5,15.22 7.39,22.88 0.52,1.68 1.28,2.16 3,2.14 7.78,-0.09 15.56,0 23.34,0 0.67,0 1.34,0 2,0 2.54,0.14 4.56,1.13 5.42,3.69 0.79,2.35 0,4.53 -2.43,6.3 -6.33,4.66 -12.71,9.25 -19.06,13.87 z m -1.36,21.93 0.42,-0.36 q -3.15,-9.75 -6.3,-19.49 c -1.26,-3.94 -0.73,-5.58 2.55,-8 4.93,-3.6 9.87,-7.17 14.8,-10.77 0.62,-0.44 1.17,-1 1.87,-1.54 C 143.74,91.11 143.6,91 143.45,91 h -19.32 c -5,0 -6.09,-0.8 -7.61,-5.48 q -2.72,-8.33 -5.43,-16.66 c -0.26,-0.81 -0.6,-1.6 -1.1,-2.93 -2.35,7.22 -4.46,13.81 -6.64,20.38 -1.19,3.62 -2.63,4.66 -6.43,4.68 -6.28,0 -12.55,0 -18.82,0 -0.69,0 -1.39,0.1 -2.67,0.2 l 16.06,11.68 c 4.66,3.38 5,4.45 3.25,9.89 -2,6.17 -4,12.34 -6.15,19 1.15,-0.77 1.83,-1.2 2.48,-1.67 l 14.41,-10.45 c 3.81,-2.76 5.37,-2.75 9.2,0 z"
       id="path3" />
  </g>
</svg>
