<?xml version="1.0" encoding="UTF-8"?><svg id="Capa_1" xmlns="http://www.w3.org/2000/svg" viewBox="0 0 338 353"><defs><style>.cls-1{fill:#7495b2;}</style></defs><path id="Trazado_302" class="cls-1" d="M167.03,11.12c53.7-2.59,99.45,38.58,102.52,92.25-.64,7.01-.3,14.08,1.03,21,3.39,6.09,12.13,3.54,17.92,4.14,13.13,1.58,23.21,12.39,23.86,25.59v152.92c-1.3,13.4-12.27,23.81-25.72,24.41H58.44c-13.15-1.3-23.46-11.88-24.43-25.06v-152.27c.65-13.21,10.73-24.02,23.86-25.59,5.79-.61,14.52,1.94,17.92-4.14,1.32-7.13,1.68-14.41,1.07-21.64,3.69-48.43,41.79-87.12,90.15-91.56M224.46,126.26c5.11-5.1,2.39-23.79.56-30.48-6.69-28.71-35.39-46.56-64.09-39.87-24.01,5.6-41.06,26.91-41.26,51.56-.46,6.31-1.85,19.04,5.97,20.74l95.59-.17c1.16-.43,2.25-1.03,3.24-1.77M169.69,182.03c-14.59,1.86-24.92,15.19-23.06,29.78.47,3.73,1.73,7.32,3.7,10.53,3.45,5.85,10.56,9.42,11.85,16.21,1.63,8.62-.56,20.14.28,29.1.21,5.92,5.19,10.55,11.12,10.34,5.62-.2,10.13-4.72,10.34-10.34.83-9.44-2.38-26.68,2.49-34.24,1.9-2.96,5.37-5.14,7.51-7.86,9.39-11.42,7.74-28.28-3.68-37.67-5.74-4.72-13.18-6.84-20.54-5.86"/></svg>