<?xml version="1.0" encoding="UTF-8" standalone="no"?>
<svg
   id="Capa_2"
   viewBox="0 0 54 51"
   version="1.1"
   sodipodi:docname="lupa.svg"
   inkscape:version="1.4 (e7c3feb100, 2024-10-09)"
   xmlns:inkscape="http://www.inkscape.org/namespaces/inkscape"
   xmlns:sodipodi="http://sodipodi.sourceforge.net/DTD/sodipodi-0.dtd"
   xmlns="http://www.w3.org/2000/svg"
   xmlns:svg="http://www.w3.org/2000/svg">
  <sodipodi:namedview
     id="namedview1"
     pagecolor="#ffffff"
     bordercolor="#000000"
     borderopacity="0.25"
     inkscape:showpageshadow="2"
     inkscape:pageopacity="0.0"
     inkscape:pagecheckerboard="0"
     inkscape:deskcolor="#d1d1d1"
     inkscape:zoom="7.1469056"
     inkscape:cx="21.407866"
     inkscape:cy="31.062394"
     inkscape:window-width="1280"
     inkscape:window-height="761"
     inkscape:window-x="0"
     inkscape:window-y="0"
     inkscape:window-maximized="1"
     inkscape:current-layer="Capa_2" />
  <defs
     id="defs1">
    <style
       id="style1">.cls-1{fill:#fff;}</style>
  </defs>
  <path
     class="cls-1"
     d="m 48.720952,44.220397 -11.06,-11.06 c 5.85,-7.01 5.43,-17.45 -1.21,-23.9400005 -6.98,-6.83 -18.17,-6.7 -25,0.28 -3.3100003,3.3100005 -5.1700003,7.8100005 -5.1800003,12.4900005 0,9.76 7.9100003,17.68 17.6700003,17.68 4.09,0.01 8.03,-1.4 11.16,-3.97 l 11.07,11.07 c 0.7,0.7 1.85,0.7 2.55,0 0.7,-0.7 0.7,-1.85 0,-2.55 z m -39.0800003,-22.23 c 0,-7.9 6.4000003,-14.3100005 14.3100003,-14.3100005 7.9,0 14.3,6.4100005 14.31,14.3100005 0,7.9 -6.4,14.31 -14.31,14.31 -7.91,0 -14.3100003,-6.4 -14.3100003,-14.31 z"
     id="path1"
     style="fill:#7495b2;fill-opacity:1" />
</svg>
