<?xml version="1.0" encoding="UTF-8" standalone="no"?>
<svg
   id="Capa_1"
   data-name="Capa 1"
   viewBox="0 0 350 265"
   version="1.1"
   sodipodi:docname="miembros.svg"
   inkscape:version="1.4 (e7c3feb100, 2024-10-09)"
   width="350"
   height="265"
   inkscape:export-filename="miembros.png"
   inkscape:export-xdpi="96"
   inkscape:export-ydpi="96"
   xmlns:inkscape="http://www.inkscape.org/namespaces/inkscape"
   xmlns:sodipodi="http://sodipodi.sourceforge.net/DTD/sodipodi-0.dtd"
   xmlns="http://www.w3.org/2000/svg"
   xmlns:svg="http://www.w3.org/2000/svg">
  <sodipodi:namedview
     id="namedview10"
     pagecolor="#505050"
     bordercolor="#ffffff"
     borderopacity="1"
     inkscape:showpageshadow="0"
     inkscape:pageopacity="0"
     inkscape:pagecheckerboard="1"
     inkscape:deskcolor="#505050"
     inkscape:zoom="1.7774269"
     inkscape:cx="170.18984"
     inkscape:cy="137.83971"
     inkscape:window-width="1290"
     inkscape:window-height="761"
     inkscape:window-x="0"
     inkscape:window-y="0"
     inkscape:window-maximized="1"
     inkscape:current-layer="Capa_1" />
  <defs
     id="defs1">
    <style
       id="style1">.cls-1{fill:#7495b2;}</style>
  </defs>
  <g
     id="g1"
     transform="matrix(1.031719,0,0,1.0737284,-12.8378,-12.731369)">
    <path
       class="cls-1"
       d="m 156.7,97.59 c -27.23,-20 -24.58,-54.83 -5.61,-72.44 A 46.4,46.4 0 0 1 217.68,28 c 17.11,19 16.72,51.07 -8.91,69.76 24,8.24 41.8,23.41 53,46 L 279,132.13 c -7,-7.42 -10.48,-16.52 -8.1,-27.29 A 28.23,28.23 0 0 1 281.37,88.32 28.91,28.91 0 0 1 319,90 c 11.93,11.15 12.07,25 0.34,42.73 a 52.81,52.81 0 0 1 26.18,24 50.67,50.67 0 0 1 6,22.95 c 0.1,4.76 -2,7 -6.69,7.07 q -16.51,0.08 -33,0 c -4.18,0 -6.81,-2.45 -6.69,-6 0.12,-3.55 2.63,-5.59 6.69,-5.61 9.06,0 18.12,0 27.55,0 a 38.41,38.41 0 0 0 -10.73,-22.28 40.53,40.53 0 0 0 -57.67,-1 c -2,2 -2.8,5.12 -4.52,7.45 -1.2,1.62 -2.9,3.66 -4.61,3.91 -1.71,0.25 -3.84,-1.28 -5.54,-2.4 -0.75,-0.5 -1,-1.9 -1.3,-2.92 -11,-32.86 -41.25,-53.82 -75.83,-52.37 a 72.28,72.28 0 0 0 -29.28,7.58 c -1.09,0.54 -2.14,1.16 -3.26,1.59 -3.21,1.25 -6.43,0.08 -7.73,-2.73 a 5.68,5.68 0 0 1 2.78,-7.68 c 4.82,-2.41 9.86,-4.45 15.01,-6.7 z M 183.08,24 a 34.86,34.86 0 1 0 34.79,35 35,35 0 0 0 -34.79,-35 z m 133.58,87.17 A 17.42,17.42 0 1 0 299,128.62 17.49,17.49 0 0 0 316.66,111.21 Z"
       id="path1" />
    <path
       class="cls-1"
       d="m 87.05,132.41 c 3.13,1.82 6.16,3.36 9,5.25 2.84,1.89 5.13,4 7.94,6.22 0.49,-0.9 1,-1.78 1.46,-2.7 2.24,-4.57 5.4,-6.18 8.77,-4.44 3.37,1.74 3.54,4.94 1.79,9.47 -2.72,7.07 -5,14.32 -7.27,21.55 -0.68,2.16 -0.66,4.53 -1,7.36 h 49.79 a 15.38,15.38 0 0 1 3.26,0.12 c 3,0.63 4.75,2.51 4.8,5.54 0.06,3.22 -1.77,5.2 -4.88,5.83 a 18.2,18.2 0 0 1 -3.62,0.12 H 23 c -7,0 -9,-1.92 -8.38,-8.94 1.71,-19.91 11.59,-34.47 29.24,-43.78 0.85,-0.45 1.73,-0.84 2.59,-1.28 0.08,0 0.11,-0.18 0.16,-0.27 -11.85,-17.12 -11.5,-32 1,-43 a 29,29 0 0 1 38.48,0.08 c 12.39,11.05 12.75,25.99 0.96,42.87 z M 95.83,175 c 1,-5.32 1.73,-10.32 2.83,-15.25 a 5.47,5.47 0 0 0 -1.47,-5.53 c -11,-11.8 -24.28,-16.59 -40,-12.68 -16,3.95 -25.8,14.47 -30,30.29 A 20.18,20.18 0 0 0 26.86,175 Z M 66.67,128.6 a 17.42,17.42 0 1 0 -17.3,-17.72 17.5,17.5 0 0 0 17.3,17.74 z"
       id="path2" />
    <path
       class="cls-1"
       d="m 232.43,242.06 c -4.29,4.39 -7.94,8.26 -11.74,12 -4.14,4.06 -8.82,3 -10.66,-2.53 q -16.2,-48.48 -32.16,-97 a 8.52,8.52 0 0 1 1.08,-6.28 c 1.37,-2.21 4,-2.3 6.54,-1.45 q 48.48,16.2 97,32.35 c 5.59,1.87 6.6,6.4 2.56,10.65 -1.83,1.92 -3.72,3.81 -5.65,5.64 -1.93,1.83 -3.92,3.58 -6.38,5.81 4,3.94 7.68,7.41 11.25,11 4.34,4.32 4.31,6.91 -0.07,11.3 q -15,15 -30,30 c -4.13,4.1 -6.64,4.1 -10.75,-0.05 -3.63,-3.65 -7.1,-7.35 -11.02,-11.44 z m -13.91,-1.88 c 2.24,-2.38 3.84,-4.17 5.54,-5.87 8,-8 8.59,-8 16.4,-0.11 2.69,2.73 5.12,5.71 7.21,8.07 l 25.19,-25.14 c -3.4,-3.37 -7.13,-7 -10.79,-10.69 -3.66,-3.69 -3.7,-6.53 0.12,-10.22 2.82,-2.73 5.89,-5.19 8.84,-7.77 l -0.86,-1.24 -78,-26 z"
       id="path3" />
    <path
       class="cls-1"
       d="m 237.31,42.62 c 0.74,-1.65 1,-2.84 1.65,-3.58 3.08,-3.24 6.13,-6.53 9.51,-9.45 2.29,-2 5.05,-1.58 7.24,0.53 2.19,2.11 2.7,4.93 0.77,7.2 a 68.44,68.44 0 0 1 -10.05,9.87 c -1.27,1 -4.31,0.73 -6,-0.11 -1.69,-0.84 -2.2,-3.08 -3.12,-4.46 z"
       id="path4" />
    <path
       class="cls-1"
       d="m 114.63,89.36 c -4.78,-0.09 -7.89,-5.18 -5.25,-8.6 a 69.46,69.46 0 0 1 10.19,-10.24 c 2.13,-1.8 4.88,-1.26 6.94,0.72 2.06,1.98 2.73,4.6 1.06,6.57 a 145.31,145.31 0 0 1 -11,10.94 c -0.52,0.51 -1.57,0.5 -1.94,0.61 z"
       id="path5" />
    <path
       class="cls-1"
       d="m 257.81,84.32 c -0.93,1.2 -1.82,3.44 -3.38,4.09 -1.71,0.71 -4.62,0.7 -6,-0.35 a 72.17,72.17 0 0 1 -9.53,-9.38 c -1.89,-2.15 -1.64,-4.78 0.16,-7 1.8,-2.22 4.75,-3.1 6.81,-1.44 4,3.23 7.44,7.16 11,10.89 0.57,0.53 0.52,1.59 0.94,3.19 z"
       id="path6" />
    <path
       class="cls-1"
       d="m 128.64,43.22 c -1,1.28 -2,3.51 -3.54,4.13 -1.54,0.62 -4.6,0.6 -6,-0.45 a 68.48,68.48 0 0 1 -9.31,-9.11 c -2,-2.25 -1.86,-5 0.13,-7.28 1.99,-2.28 4.6,-3.14 6.8,-1.32 a 133.69,133.69 0 0 1 10.81,10.62 c 0.62,0.62 0.63,1.8 1.11,3.41 z"
       id="path7" />
    <path
       class="cls-1"
       d="m 109.64,64.68 c -1.93,0 -3.88,0.12 -5.8,0 A 5.84,5.84 0 0 1 98.26,59 a 5.76,5.76 0 0 1 5.67,-5.88 c 4,-0.16 8,-0.17 12,0 a 5.5,5.5 0 0 1 5.48,5.61 5.59,5.59 0 0 1 -5.57,5.9 c -2.08,0.17 -4.14,0.06 -6.2,0.05 z"
       id="path8" />
    <path
       class="cls-1"
       d="m 255.83,64.68 c -1.94,0 -3.88,0.13 -5.8,0 a 5.6,5.6 0 0 1 -5.39,-5.72 5.47,5.47 0 0 1 5.36,-5.79 c 4.1,-0.2 8.23,-0.19 12.33,0 a 5.72,5.72 0 0 1 5.48,5.7 6,6 0 0 1 -6.13,5.84 h -5.8 z"
       id="path9" />
    <path
       class="cls-1"
       d="m 125.56,117.68 a 5.78,5.78 0 0 1 5.75,5.78 6,6 0 0 1 -5.87,5.76 5.8,5.8 0 0 1 -5.67,-5.88 5.63,5.63 0 0 1 5.79,-5.66 z"
       id="path10" />
  </g>
</svg>
