<?xml version="1.0" encoding="UTF-8" standalone="no"?>
<svg
   id="Capa_1"
   data-name="Capa 1"
   viewBox="0 0 350 265"
   version="1.1"
   sodipodi:docname="seguros.svg"
   inkscape:version="1.4 (e7c3feb100, 2024-10-09)"
   width="350"
   height="265"
   inkscape:export-filename="seguros.png"
   inkscape:export-xdpi="96"
   inkscape:export-ydpi="96"
   xmlns:inkscape="http://www.inkscape.org/namespaces/inkscape"
   xmlns:sodipodi="http://sodipodi.sourceforge.net/DTD/sodipodi-0.dtd"
   xmlns="http://www.w3.org/2000/svg"
   xmlns:svg="http://www.w3.org/2000/svg">
  <sodipodi:namedview
     id="namedview14"
     pagecolor="#505050"
     bordercolor="#ffffff"
     borderopacity="1"
     inkscape:showpageshadow="0"
     inkscape:pageopacity="0"
     inkscape:pagecheckerboard="1"
     inkscape:deskcolor="#505050"
     inkscape:zoom="1.9425722"
     inkscape:cx="159.83962"
     inkscape:cy="150.31616"
     inkscape:window-width="1290"
     inkscape:window-height="761"
     inkscape:window-x="0"
     inkscape:window-y="0"
     inkscape:window-maximized="1"
     inkscape:current-layer="Capa_1" />
  <defs
     id="defs1">
    <style
       id="style1">.cls-1{fill:#7495b2;}</style>
  </defs>
  <g
     id="g1"
     transform="matrix(1.1435867,0,0,1.1237123,33.938368,-17.670263)">
    <path
       class="cls-1"
       d="m 244,135.86 c -1.26,2 -3.1,2.58 -5.39,2.56 -10.69,-0.06 -21.38,0 -32.07,0 -4,0 -5.23,-1.27 -5.29,-5.1 A 73.8,73.8 0 0 0 192.17,98.96 8.25,8.25 0 0 1 191,95.36 c 0,-2.22 1.88,-3.57 4.68,-3.59 5.08,0 10.16,0 15.24,0 h 2.53 a 16.22,16.22 0 0 1 7.39,-9.55 15.52,15.52 0 0 1 22.3,8.15 c 0.28,0.77 0.6,1.52 0.9,2.28 v 5.91 a 11.66,11.66 0 0 0 -0.49,1.23 15.52,15.52 0 0 1 -29.55,1.27 c -0.19,-0.48 -0.41,-1 -0.62,-1.47 h -12.17 a 85.59,85.59 0 0 1 7.78,31 h 2.79 c 8.87,0 17.74,0.06 26.61,0 2.37,0 4.29,0.5 5.62,2.56 z M 228.46,88 a 7.6,7.6 0 0 0 -7.7,7.79 7.77,7.77 0 0 0 7.62,7.71 7.86,7.86 0 0 0 7.86,-7.75 7.69,7.69 0 0 0 -7.78,-7.75 z"
       id="path1" />
    <path
       class="cls-1"
       d="m 207.6,18 a 40,40 0 0 1 5.45,2.18 15.34,15.34 0 0 1 7.29,16.93 A 15.61,15.61 0 0 1 207.13,49 c -7.09,0.71 -13.49,-2.89 -16.1,-9.33 -0.69,-1.7 -1.47,-2.23 -3.26,-2.2 -7.58,0.11 -15.17,0 -22.75,0 h -2.52 v 8.08 c 0,4.32 0.12,8.65 -0.05,13 -0.08,1.92 0.68,2.78 2.28,3.57 a 78.15,78.15 0 0 1 20.38,14.7 c 2.21,2.19 2.46,4.4 0.73,6.16 -1.73,1.76 -4,1.5 -6.17,-0.64 a 72.79,72.79 0 0 0 -21.77,-15 4.79,4.79 0 0 1 -3.18,-4.93 c 0.06,-8.19 0,-16.38 0,-24.57 0,-5 3.11,-8 8.15,-8.07 8.42,-0.06 16.84,0 25.25,0 1,0 2,0.17 2.5,-1.28 a 15,15 0 0 1 11.39,-10 c 0.2,0 0.37,-0.23 0.56,-0.35 z m -10.13,15.3 a 7.63,7.63 0 0 0 7.53,8 7.79,7.79 0 0 0 8,-7.6 7.86,7.86 0 0 0 -7.49,-7.88 7.71,7.71 0 0 0 -8.04,7.48 z"
       id="path2" />
    <path
       class="cls-1"
       d="m 52.44,18 c 2.42,1.19 5.13,2 7.16,3.67 a 19.13,19.13 0 0 1 4.51,6.12 2.82,2.82 0 0 0 3,1.92 c 8.12,-0.07 16.23,0 24.35,0 5.9,0 8.82,2.91 8.84,8.77 0,6.27 0,12.55 0,19 3.56,-0.93 6.9,-1.85 10.27,-2.64 2.65,-0.63 4.67,0.5 5.14,2.71 0.47,2.21 -0.72,4 -3.35,4.79 -4.55,1.39 -9.12,2.75 -13.62,4.31 -3.74,1.29 -6.16,-0.21 -6.19,-4.21 0,-7.21 0,-14.41 0,-21.62 v -3.19 c -0.77,-0.06 -1.42,-0.16 -2.06,-0.16 -7.89,0 -15.78,0 -23.66,0 A 2.34,2.34 0 0 0 64.2,39.2 15.44,15.44 0 0 1 47,48.83 15.53,15.53 0 0 1 46.16,18.45 c 0.44,-0.11 0.85,-0.29 1.28,-0.44 z m 5.13,15.62 a 7.71,7.71 0 0 0 -7.68,-7.86 7.85,7.85 0 0 0 -7.81,7.79 7.77,7.77 0 0 0 7.62,7.7 7.63,7.63 0 0 0 7.87,-7.62 z"
       id="path3" />
    <path
       class="cls-1"
       d="m 244,175.91 c -0.23,0.62 -0.48,1.24 -0.67,1.88 a 15.41,15.41 0 0 1 -13.92,10.93 15.19,15.19 0 0 1 -15.25,-9.64 2.42,2.42 0 0 0 -2.75,-1.88 c -5.16,0.1 -10.31,0.05 -15.47,0 -4.5,0 -6.2,-2.79 -4,-6.7 a 77.75,77.75 0 0 0 7.91,-21.19 3.85,3.85 0 0 1 7.56,0 4.12,4.12 0 0 1 -0.12,2 q -2.46,7.91 -5,15.77 c -0.22,0.7 -0.53,1.38 -0.87,2.26 h 12 c 0.2,-0.48 0.43,-1 0.65,-1.58 a 15.5,15.5 0 0 1 29.43,1.43 c 0.17,0.57 0.36,1.14 0.55,1.71 z M 228.4,181 a 7.73,7.73 0 0 0 7.85,-7.7 7.86,7.86 0 0 0 -7.81,-7.8 7.77,7.77 0 0 0 -7.68,7.65 7.62,7.62 0 0 0 7.64,7.85 z"
       id="path4" />
    <path
       class="cls-1"
       d="m 128.88,18 c 2.06,1.32 2.59,3.24 2.57,5.61 -0.09,8.93 0,17.87 0,26.8 v 2.51 c 4,0.52 7.84,1 11.64,1.53 3,0.46 4.57,2.86 3.55,5.34 a 3.71,3.71 0 0 1 -4.19,2.38 c -5,-0.49 -10.08,-0.94 -15.12,-1.47 -2.35,-0.25 -3.6,-1.74 -3.65,-4.39 -0.07,-3.48 0,-7 0,-10.44 0,-7.5 0,-15 0,-22.49 0,-2.3 0.58,-4.12 2.56,-5.38 z"
       id="path5" />
    <path
       class="cls-1"
       d="m 193.51,134.46 a 66,66 0 1 1 -66,-65.95 66,66 0 0 1 66,65.95 z m -65.91,58.28 a 58.24,58.24 0 1 0 -58.32,-58.27 58.28,58.28 0 0 0 58.32,58.27 z"
       id="path6" />
    <path
       class="cls-1"
       d="m 92.54,231.53 c 0,-7.68 0,-15 -0.09,-22.36 0,-0.71 -1.15,-1.63 -2,-2 A 79.22,79.22 0 0 1 66,187.83 a 5.44,5.44 0 0 1 -1,-4.28 4,4 0 0 1 3.12,-2.35 6.26,6.26 0 0 1 4,2.05 75.75,75.75 0 0 0 25.09,18.46 4.85,4.85 0 0 1 3.15,5 c -0.07,8.11 0,16.23 0,24.34 0,5.15 -3.05,8.23 -8.19,8.27 -8.34,0.05 -16.68,0.06 -25,0 a 2.62,2.62 0 0 0 -2.94,2 15.29,15.29 0 0 1 -17,9.45 15.51,15.51 0 1 1 17,-21.17 c 0.6,1.49 1.25,2.05 2.89,2 8.29,-0.12 16.69,-0.07 25.42,-0.07 z m -35,3.82 a 7.62,7.62 0 0 0 -7.88,-7.62 7.79,7.79 0 0 0 -7.62,7.72 7.87,7.87 0 0 0 7.84,7.78 7.72,7.72 0 0 0 7.69,-7.88 z"
       id="path7" />
    <path
       class="cls-1"
       d="m 162.78,231.53 h 10.14 c 5.08,0 10.16,0 15.24,0 a 2.32,2.32 0 0 0 2.66,-1.71 15.36,15.36 0 0 1 17.58,-9.59 15.51,15.51 0 0 1 -1.83,30.63 A 15.33,15.33 0 0 1 191,241.4 c -0.71,-1.8 -1.6,-2.14 -3.31,-2.13 -8,0.08 -16.07,0 -24.1,0 -5.9,0 -8.82,-2.92 -8.83,-8.78 0,-7.81 0.06,-15.62 0,-23.42 0,-2.68 0.87,-4.38 3.4,-5.5 A 72.75,72.75 0 0 0 180,186.38 c 1.72,-1.7 3.71,-1.89 5.31,-0.64 a 3.67,3.67 0 0 1 1.17,4.67 6.29,6.29 0 0 1 -1.53,1.94 83.06,83.06 0 0 1 -20.76,15 3.08,3.08 0 0 0 -1.62,2 c -0.12,7.12 -0.07,14.25 -0.05,21.37 a 4,4 0 0 0 0.26,0.81 z m 34.69,4 a 7.7,7.7 0 0 0 7.87,7.66 7.87,7.87 0 0 0 7.62,-7.76 7.77,7.77 0 0 0 -7.83,-7.73 7.61,7.61 0 0 0 -7.66,7.86 z"
       id="path8" />
    <path
       class="cls-1"
       d="m 41.62,99.69 c -0.33,0.8 -0.65,1.65 -1,2.47 a 15.5,15.5 0 1 1 -17.27,-21.69 15.24,15.24 0 0 1 17.2,8.8 c 0.85,2 1.84,2.64 3.94,2.54 3.94,-0.17 7.88,-0.12 11.82,0 A 3,3 0 0 0 59.21,90.2 78.1,78.1 0 0 1 78,69.73 c 2.15,-1.63 4.21,-1.6 5.7,0 1.67,1.81 1.35,4.28 -1,6.07 A 74.36,74.36 0 0 0 66.35,93.3 c -4.69,7 -2.45,6.17 -11.74,6.22 -4.16,0 -8.33,0 -12.5,0 a 2.22,2.22 0 0 0 -0.49,0.17 z M 26.45,88 a 7.69,7.69 0 0 0 -7.65,7.87 7.87,7.87 0 0 0 7.75,7.63 7.78,7.78 0 0 0 7.73,-7.84 A 7.61,7.61 0 0 0 26.45,88 Z"
       id="path9" />
    <path
       class="cls-1"
       d="m 53.33,169.48 c -1.78,-5.57 -3.48,-10.88 -5.16,-16.2 a 20.38,20.38 0 0 1 -0.49,-2.22 3.87,3.87 0 0 1 2.77,-4.75 c 2.25,-0.52 4,0.64 4.77,3.06 1.21,4.06 2.25,8.18 3.7,12.15 a 77.83,77.83 0 0 0 4.14,8.83 c 2.14,4.12 0.59,6.86 -4,6.88 -5.16,0 -10.32,0.05 -15.47,0 a 2.3,2.3 0 0 0 -2.65,1.7 15.39,15.39 0 0 1 -18,9.51 15.56,15.56 0 0 1 -11.83,-16.85 c 0.69,-7.32 7,-13.25 14.62,-13.78 a 15.44,15.44 0 0 1 15.19,9.81 c 0.56,1.42 1.16,2 2.73,1.92 3.21,-0.16 6.47,-0.06 9.68,-0.06 z m -19,3.88 a 7.77,7.77 0 0 0 -7.74,-7.82 7.86,7.86 0 0 0 -7.75,7.86 7.71,7.71 0 0 0 7.63,7.6 7.62,7.62 0 0 0 7.81,-7.64 z"
       id="path10" />
    <path
       class="cls-1"
       d="m 123.62,216.07 c -4.21,-0.55 -8.11,-1 -12,-1.59 a 3.93,3.93 0 0 1 -3.57,-4.46 c 0.37,-2.23 2.14,-3.43 4.7,-3.2 0.38,0 0.75,0.11 1.13,0.14 5,0.43 9.94,1.13 14.92,1.17 4.06,0 8.13,-0.72 12.2,-1.13 0.45,-0.05 0.9,-0.15 1.35,-0.17 2.44,-0.15 4.12,1.12 4.38,3.29 a 3.75,3.75 0 0 1 -3.36,4.36 c -3.88,0.61 -7.78,1.05 -12,1.59 v 2.43 q 0,13.41 0,26.83 a 11,11 0 0 1 -0.27,2.93 3.79,3.79 0 0 1 -7.26,0 12.35,12.35 0 0 1 -0.25,-2.92 q 0,-13.31 0,-26.61 z"
       id="path11" />
    <path
       class="cls-1"
       d="m 45.52,130.6 c 1.29,-6.57 2.5,-12.79 3.74,-19 a 15.63,15.63 0 0 1 0.75,-2.38 c 0.86,-2.26 2.77,-3.34 4.78,-2.74 2.17,0.66 3.19,2.61 2.59,5.08 -0.72,2.93 -1.74,5.82 -2.2,8.79 -0.67,4.33 -1.06,8.71 -1.36,13.09 -0.25,3.57 -1.42,4.94 -5,4.94 q -16.36,0 -32.74,0 c -3.23,0 -5.06,-1.49 -5,-4 0.06,-2.51 1.83,-3.81 5.15,-3.81 q 13.88,0 27.74,0 z"
       id="path12" />
    <path
       class="cls-1"
       d="m 108.31,114.83 a 94.3,94.3 0 0 1 0,-10 19.3,19.3 0 0 1 38.32,0.08 92.22,92.22 0 0 1 0.06,9.85 l 2.7,0.57 a 11.26,11.26 0 0 1 9,10.6 q 0.18,18.18 0,36.38 a 11,11 0 0 1 -10.76,10.84 q -20.22,0.23 -40.47,0 A 11,11 0 0 1 96.48,162.24 q -0.18,-18.08 0,-36.16 a 11.27,11.27 0 0 1 9.35,-10.79 z m 19.07,50.69 h 18.43 c 3.7,0 5,-1.24 5,-4.86 q 0,-16.49 0,-33 c 0,-3.48 -1.32,-4.83 -4.81,-4.84 q -18.43,0 -36.86,0 c -3.53,0 -4.84,1.34 -4.85,4.8 q 0,16.62 0,33.22 c 0,3.36 1.31,4.65 4.7,4.67 6.11,0.03 12.25,0.01 18.39,0.01 z M 139,115 a 88,88 0 0 0 -0.06,-9.5 11.2,11.2 0 0 0 -10.45,-9.69 c -5.76,-0.35 -11,3.1 -12.1,8.53 -0.68,3.42 -0.48,7 -0.68,10.66 z"
       id="path13" />
    <path
       class="cls-1"
       d="m 115.86,142.17 a 11.64,11.64 0 1 1 17.53,10.06 3.65,3.65 0 0 0 -2.26,2.76 3.76,3.76 0 0 1 -7.26,-0.11 3.4,3.4 0 0 0 -2.12,-2.6 11.51,11.51 0 0 1 -5.89,-10.11 z m 11.64,-3.72 a 3.75,3.75 0 0 0 -3.81,3.89 3.83,3.83 0 0 0 7.66,0 3.77,3.77 0 0 0 -3.85,-3.89 z"
       id="path14" />
  </g>
</svg>
