<?xml version="1.0" encoding="UTF-8"?><svg id="Capa_1" xmlns="http://www.w3.org/2000/svg" viewBox="0 0 349 351"><defs><style>.cls-1{fill:#7495b2;}</style></defs><path class="cls-1" d="M86.75,7c7.47,1.43,13.65,4.18,19.45,9.08,16.79,14.21,33.16,34.06,48.54,49.9,8.77,15.53,4.01,34.21-12.05,42.4-2.86,1.46-6.42,2.3-9.25,3.92-40.04,23.06,11.45,79.62,33.64,96.81,17.68,13.7,45.84,30.43,65.09,10.03,6.49-6.87,6.43-15.9,14.16-22.83,12.34-11.07,28.97-9.3,41.1.95,12.99,10.97,33.23,31.58,44.54,44.5,10.36,11.84,12.24,26.85,3.38,40.4-4.51,6.9-29.05,31.14-36.06,36.68-2.89,2.28-7.02,4.56-10.46,5.85-4.36,1.63-8.85,2.2-13.32,3.3-4.29-.25-8.93.35-13.17,0-8.14-.66-17.12-3.13-24.94-5.48C155.64,297.96,46.75,188.99,24.84,106.19c-4.91-18.56-7.75-42.93,5.45-58.77,7.33-8.78,24.77-26.34,33.58-33.51,4.28-3.48,10.5-6.29,15.97-6.91h6.9Z"/></svg>